<?xml version="1.0" encoding="UTF-8" standalone="no"?>
<svg width="33px" height="50px" viewBox="0 0 33 50" version="1.1" xmlns="http://www.w3.org/2000/svg" xmlns:xlink="http://www.w3.org/1999/xlink">
    <!-- Generator: Sketch 41 (35326) - http://www.bohemiancoding.com/sketch -->
    <title>Combined Shape</title>
    <desc>Created with Sketch.</desc>
    <defs></defs>
    <g id="views" stroke="none" stroke-width="1" fill="none" fill-rule="evenodd">
        <g id="Station---Dashboard" transform="translate(-598.000000, -401.000000)" fill="#000000">
            <g id="station-card" transform="translate(519.000000, 229.000000)">
                <g id="soil-humidity-section" transform="translate(48.000000, 151.250000)">
                    <g id="Group-6">
                        <path d="M63.6470588,54.4117647 C63.6470588,41.5882353 49,23.2352941 48.4117647,22.4117647 L47.4705882,21.2941176 L46.5294118,22.4117647 C45.9411765,23.1764706 31.2941176,41.5882353 31.2941176,54.4117647 C31.2941176,63.3529412 38.5294118,70.5882353 47.4705882,70.5882353 C56.4117647,70.5882353 63.6470588,63.3529412 63.6470588,54.4117647 Z M61.2941176,54.4117647 C61.2941176,62.0588235 55.1176471,68.2352941 47.4705882,68.2352941 C39.8235294,68.2352941 33.6470588,62.0588235 33.6470588,54.4117647 C33.6470588,44.2352941 44.2352941,29.4117647 47.4705882,25.1176471 C50.7058824,29.3529412 61.2941176,44.2352941 61.2941176,54.4117647 Z M48.6470588,64 C48.6470588,63.3529412 48.1176471,62.8235294 47.4705882,62.8235294 C43.1764706,62.8235294 39.6470588,59.2941176 39.6470588,55 C39.6470588,54.3529412 39.1176471,53.8235294 38.4705882,53.8235294 C37.8235294,53.8235294 37.2941176,54.3529412 37.2941176,55 C37.2941176,60.5882353 41.8823529,65.1764706 47.4705882,65.1764706 C48.1176471,65.1764706 48.6470588,64.6470588 48.6470588,64 Z" id="Combined-Shape"></path>
                    </g>
                </g>
            </g>
        </g>
    </g>
</svg>