<?xml version="1.0" encoding="UTF-8" standalone="no"?>
<svg width="36px" height="50px" viewBox="0 0 36 50" version="1.1" xmlns="http://www.w3.org/2000/svg" xmlns:xlink="http://www.w3.org/1999/xlink">
    <!-- Generator: Sketch 41 (35326) - http://www.bohemiancoding.com/sketch -->
    <title>logo</title>
    <desc>Created with Sketch.</desc>
    <defs></defs>
    <g id="views" stroke="none" stroke-width="1" fill="none" fill-rule="evenodd">
        <g id="Station---Dashboard" transform="translate(-702.000000, -75.000000)">
            <g id="header" transform="translate(589.000000, 75.000000)">
                <g id="logo" transform="translate(113.152542, 0.000000)">
                    <path d="M20.2946391,47.5 C20.2946391,35.2804592 13.525396,20 4.73101928,20 C3.69413879,20 2.76653555,20.6493155 2.40496368,21.628222 C-3.3290919,37.1523932 4.33020207,50 17.8127989,50 C19.1834814,50 20.2946391,48.8807118 20.2946391,47.5 Z M6.37725984,25.4380242 C10.399441,27.5179045 14.4151763,36.6339933 15.1951486,44.7676575 C7.5454516,43.3586075 3.42800602,35.6761525 6.37725984,25.4380242 Z" id="Shape" fill="#529D00"></path>
                    <path d="M29.2902606,25.4380242 C32.2395145,35.6761525 28.1220689,43.3586075 20.472372,44.7676575 C21.2523441,36.6339933 25.2680795,27.5179045 29.2902606,25.4380242 Z M15.3728814,47.5 C15.3728814,48.8807118 16.4840391,50 17.8547215,50 C31.3373184,50 38.9966123,37.1523932 33.2625568,21.628222 C32.9009849,20.6493155 31.9733818,20 30.9365012,20 C22.1421246,20 15.3728814,35.2804592 15.3728814,47.5 Z" id="Shape" fill="#529D00"></path>
                    <path d="M33.5850412,6.40796746 C24.9830387,-2.13598915 10.9737142,-2.13598915 2.37185536,6.40796746 L2.37185536,6.40796746 L2.37185536,6.40796746 C1.3254484,7.45509281 1.3254484,9.19876915 2.37185536,10.2450324 L2.37185536,10.2450324 C3.41696921,11.2914394 5.16122027,11.2914394 6.20762723,10.2450324 L6.20762723,10.2450324 L6.20762723,10.2450324 C12.6594883,3.79331501 23.1795923,3.79331501 29.690074,10.2450324 L29.690074,10.2450324 L29.7486947,10.3036531 L29.7486947,10.3036531 C30.7936648,11.3486232 32.5386343,11.3486232 33.5850412,10.3036531 L33.5850412,10.3036531 C34.6889194,9.25839553 34.6889194,7.57233407 33.5850412,6.40796746 C33.6423688,6.46658809 33.6423688,6.46658809 33.5850412,6.40796746 C33.5850412,6.46658809 33.5850412,6.46658809 33.5850412,6.40796746 L33.5850412,6.40796746 Z" id="Shape" fill="#529C00"></path>
                    <path d="M26.7003451,12.6190695 C21.8773616,7.7936435 14.0306743,7.7936435 9.20582304,12.6190695 L9.20582304,12.6190695 L9.20582304,12.6190695 C8.1586977,13.6654765 8.1586977,15.4078597 9.20582304,16.4542667 L9.20582304,16.4542667 C10.2515116,17.5005299 11.995188,17.5005299 13.0415949,16.4542667 L13.0415949,16.4542667 L13.0415949,16.4542667 C15.7736323,13.722804 20.1338289,13.722804 22.8651479,16.4542667 L22.8651479,16.4542667 L22.9224754,16.5127436 L22.9224754,16.5127436 C23.9688824,17.5590069 25.7125587,17.5590069 26.7576726,16.5127436 L26.7576726,16.5127436 C27.8628438,15.4676298 27.8628438,13.7229477 26.7003451,12.6190695 C26.7589657,12.6765407 26.7589657,12.6765407 26.7003451,12.6190695 C26.7589657,12.6765407 26.7003451,12.6190695 26.7003451,12.6190695 L26.7003451,12.6190695 Z" id="Shape" fill="#529C00"></path>
                    <path d="M16.082132,18.8279086 L16.082132,18.8279086 C15.0351504,19.8741719 15.0351504,21.6189977 16.082132,22.6641115 L16.082132,22.6641115 C17.128539,23.7105185 18.8720716,23.7105185 19.9173292,22.6641115 L19.9173292,22.6641115 C20.9650292,21.6189977 20.9650292,19.8741719 19.9173292,18.8279086 L19.9173292,18.8279086 C18.8720716,17.7240305 17.1852918,17.7240305 16.082132,18.8279086 Z" id="Shape" fill="#529C00"></path>
                </g>
            </g>
        </g>
    </g>
</svg>