<?xml version="1.0" encoding="UTF-8" standalone="no"?>
<svg width="35px" height="46px" viewBox="0 0 35 46" version="1.1" xmlns="http://www.w3.org/2000/svg" xmlns:xlink="http://www.w3.org/1999/xlink">
    <!-- Generator: Sketch 41 (35326) - http://www.bohemiancoding.com/sketch -->
    <title>Combined Shape</title>
    <desc>Created with Sketch.</desc>
    <defs></defs>
    <g id="views" stroke="none" stroke-width="1" fill="none" fill-rule="evenodd">
        <g id="Station---Dashboard" transform="translate(-597.000000, -601.000000)" fill="#000000">
            <g id="station-card" transform="translate(519.000000, 229.000000)">
                <g id="sprinkler-section" transform="translate(48.000000, 344.000000)">
                    <g id="Group-2" transform="translate(0.000000, 3.000000)">
                        <path d="M55.78,33.445 L55.78,28.54 L64.15,28.54 L64.15,25.75 L44.575,25.75 L44.575,28.54 L52.945,28.54 L52.945,33.445 L55.78,33.445 Z M52.99,33.445 L30.85,33.445 L30.85,52.075 L42.955,52.075 L42.955,45.055 L64.15,45.055 L64.15,33.445 L55.78,33.445 L52.99,33.445 Z M61.36,42.265 L40.165,42.265 L40.165,49.24 L33.64,49.24 L33.64,36.19 L61.315,36.19 L61.315,42.265 L61.36,42.265 Z M36.925,55.54 L35.755,57.61 C34.945,59.095 32.245,64.045 32.245,66.07 C32.245,68.635 34.36,70.75 36.925,70.75 C39.49,70.75 41.605,68.635 41.605,66.07 C41.605,64.045 38.905,59.095 38.095,57.61 L36.925,55.54 Z M36.925,68.05 C35.845,68.05 34.945,67.15 34.945,66.07 C34.945,65.395 35.845,63.28 36.925,61.12 C38.005,63.28 38.905,65.395 38.905,66.07 C38.905,67.15 38.005,68.05 36.925,68.05 Z" id="Combined-Shape"></path>
                    </g>
                </g>
            </g>
        </g>
    </g>
</svg>